<svg xmlns="http://www.w3.org/2000/svg" version="1.1" xmlns:xlink="http://www.w3.org/1999/xlink" xmlns:svgjs="http://svgjs.com/svgjs" width="300" height="300"><svg width="300" height="300" viewBox="0 0 61 52" fill="none" xmlns="http://www.w3.org/2000/svg">
    <path d="M61 0.000976562H0V37.7265H61V0.000976562Z" fill="#EE3524"></path>
    <path d="M39.155 11.1081V11.8023H45.0262C45.4147 11.8023 45.9975 11.8023 46.386 12.1928C46.7746 12.5833 46.7746 13.169 46.7746 13.5595V19.4602C46.7746 19.8507 46.7746 20.4365 46.386 20.8269C45.9975 21.2174 45.4147 21.2174 45.0262 21.2174H42.1985C41.702 21.2174 41.076 21.2174 40.8386 20.6751C40.6012 20.1327 40.9465 19.6338 41.2271 19.2433L45.0477 14.1453H39.1765L36.8237 17.2909C36.4352 17.8115 36.0898 18.2671 36.0898 18.8528C36.0898 19.4385 36.4136 19.8724 36.8237 20.4365L37.4065 21.2174C37.9893 21.9984 38.5722 22.8011 39.3492 23.1916C40.1263 23.5821 41.0545 23.5821 42.328 23.5821H44.8966C46.3644 23.5821 48.5661 23.5821 50.0339 22.1069C51.5017 20.6317 51.5017 18.4623 51.5017 17.6813V15.3167C51.5017 14.5357 51.5017 12.3664 50.0339 10.8912C48.5661 9.41602 46.3644 9.41602 44.8966 9.41602H40.8386C40.4501 9.41602 39.9536 9.41602 39.5651 9.8065C39.155 10.2187 39.155 10.7176 39.155 11.1081Z" fill="white"></path>
    <path d="M32.1188 14.145H37.99L30.9532 23.5818H25.082L32.1188 14.145Z" fill="white"></path>
    <path d="M9.23828 15.8154C9.23828 15.425 9.23828 14.926 9.62682 14.5355C10.0154 14.145 10.5118 14.145 10.9003 14.145H20.7216C21.9952 14.145 22.9233 14.145 23.7004 14.5355C24.4775 14.926 25.0603 15.707 25.6647 16.5096L26.2475 17.2906C26.6576 17.8547 26.9814 18.2668 26.9814 18.8526C26.9814 19.4383 26.636 19.8939 26.2475 20.4362L23.8947 23.5818H18.0451L21.8657 18.4621C22.1679 18.0716 22.4916 17.5726 22.2542 17.0303C22.0168 16.4879 21.3692 16.4879 20.8727 16.4879H16.2967V28.2894H11.5911V16.5096H9.23828V15.8154Z" fill="white"></path>
    <path d="M9.15234 42.9546H10.4259V46.6859H14.6566V42.9546H15.9301V51.8924H14.6566V47.814H10.4259V51.8924H9.15234V42.9546Z" fill="#ED1C29"></path>
    <path d="M18.3262 42.9543H19.5997V49.0286L19.5565 50.135H19.6213C19.9235 49.5275 20.0962 49.2455 20.4199 48.7249L23.9815 42.9326H25.4061V51.8705H24.1326V45.7745L24.1758 44.6681H24.111C23.7872 45.3623 23.5714 45.6443 23.3124 46.0782L19.7508 51.8705H18.3262V42.9543Z" fill="#ED1C29"></path>
    <path d="M27.7812 42.9543H29.0548V49.0286L29.0116 50.135H29.0764C29.3786 49.5275 29.5512 49.2455 29.875 48.7249L33.4366 42.9326H34.8612V51.8705H33.5877V45.7745L33.6309 44.6681H33.5661C33.2423 45.3623 33.0265 45.6443 32.7675 46.0782L29.2059 51.8705H27.7812V42.9543Z" fill="#ED1C29"></path>
    <path d="M39.9982 42.9546H41.3365L45.0708 51.8924H43.6893L42.7827 49.6363H38.4441L37.5375 51.8924H36.1992L39.9982 42.9546ZM40.6242 44.1477L38.8542 48.5733H42.3726L40.6242 44.1477Z" fill="#ED1C29"></path>
    <path d="M52.474 44.4298C51.9128 44.1044 51.2868 43.9308 50.6393 43.9308C49.8622 43.9308 49.0636 44.1694 48.4592 44.6467C47.7469 45.2107 47.2288 46.1653 47.2288 47.4018C47.2288 48.4865 47.6173 49.2675 48.0706 49.7664C48.675 50.4823 49.56 50.8728 50.7688 50.8728C51.2005 50.8728 51.8049 50.786 52.5172 50.4606L52.6035 51.6755C51.8696 51.9575 51.2653 52.0009 50.7472 52.0009C49.56 52.0009 48.1786 51.7623 47.1209 50.6776C46.4517 49.9834 45.9121 48.8336 45.9121 47.3801C45.9121 46.4473 46.1495 44.8853 47.5526 43.779C48.4592 43.0848 49.6032 42.8027 50.6393 42.8027C51.6106 42.8027 52.1718 42.998 52.5604 43.1932L52.474 44.4298Z" fill="#ED1C29"></path>
</svg><style>@media (prefers-color-scheme: light) { :root { filter: none; } }
</style></svg>